<svg xmlns="http://www.w3.org/2000/svg" height="512" width="512"><path fill="#fff" stroke="#000" stroke-width="10" d="M35.836 141.284H474.93v285.04H35.835z"/><path d="M449.816 162.998l48.48-40.4v323.2l-48.48-40.4v-242.4zm-436.32 282.8l48.48-40.4h387.84l48.48 40.4h-484.8zm0-323.2l48.48 40.4v242.4l-48.48 40.4v-323.2zm0 0l48.48 40.4h387.84l48.48-40.4h-484.8zM261.61 68.405c3.155 3.155 3.155 8.27 0 11.427-3.156 3.155-8.272 3.155-11.428 0-3.155-3.155-3.155-8.27 0-11.427 3.156-3.156 8.272-3.156 11.427 0zm0 0c3.154 3.155 3.154 8.27 0 11.426-3.156 3.16-8.272 3.16-11.427 0-3.156-3.152-3.156-8.27 0-11.423 3.155-3.156 8.27-3.156 11.426 0zm-5.714-2.367l40.4 56.56m-40.4-56.56l-40.4 56.56" fill="red" stroke="#000" stroke-width="10" stroke-miterlimit="0" stroke-linejoin="round"/><path d="M256.688 320.938c-5.71-.11-9.647 2.397-10 2.625v-.032c-.055.03-.072.07-.125.098l-.125.063.03.03c-2.524 1.38-3.906 3.563-3.906 3.563v.032l-.03.032c-1.447 2.366-1.72 4.875-1.72 4.875v.03c-.452 3.584.887 6.428.907 6.47 0 .01-.008.02 0 .03 1.514 3.33 4.59 4.75 4.59 4.75 5.135 2.514 10.437 2.658 10.437 2.658 6.3.226 10.843-2.844 10.843-2.844 2.853-1.958 4.038-4.813 4.063-4.875l.03-.03h-.03c1.41-3.156.938-6.345.938-6.345-.356-2.862-1.904-4.968-1.904-4.968-1.557-2.253-3.522-3.224-3.844-3.375-.012-.007-.02-.024-.03-.032l-.19-.093v.03c-4.63-2.665-9.935-2.687-9.935-2.687zm-60.876-20.468c-1.948-.018-3.238.48-3.437.56-.016.006-.015.027-.03.032-.01.004-.157.032-.157.032v.03c-2.592.9-4.115 2.79-4.157 2.845l-.03.03c-1.8 1.984-2.53 4.22-2.53 4.22v.03l-.03.03c-1.34 4.36-.97 8.373-.97 8.373.39 4.927 3.127 8.156 3.127 8.156l.03.063.064.03c2.425 2.62 5.75 3 5.75 3h.03c3.31.517 6.188-.56 6.188-.56l.094-.033.096-.03c3.116-1.34 4.656-4.124 4.656-4.124v-.03c1.47-2.464 1.845-5.22 1.845-5.22l.03-.062v-.063c.46-4.193 0-7.31 0-7.31-.68-4.35-3.313-7.124-3.313-7.124l-.125-.125-.156-.126c-2.29-1.76-4.718-2.344-4.718-2.344-.796-.204-1.55-.277-2.25-.28zm119.188.436c-2.756-.21-4.938.656-4.938.656l-.062.032-.03.03c-2.974 1.343-4.498 3.972-4.532 4.032l-.032.03c-1.613 2.498-2.093 5.22-2.093 5.22l-.032.156-.03.125c-.34 3.683-.093 6.1-.09 6.125v.032c.366 3.762 2.22 6.343 2.22 6.343h.03c2.047 2.832 5 3.907 5 3.907 3.34 1.308 6.437.312 6.437.312h.03c3.616-1.135 5.513-4.253 6.595-6.75 1.08-2.497 1.437-4.75 1.437-4.75l-2.438-.375 2.435.285c.972-8.855-4.875-13.875-4.875-13.875l-.186-.157-.22-.124c-2.255-1.177-4.624-1.25-4.624-1.25zm-26.594-122.093c-1.515.007-3.175.17-4.875.562v-.03s-6.19 1.45-11.59 6.06l-.062.032-.22.157c-.052.046-.102.078-.155.125l-.062.03s-4.586 4.22-8.624 10c-1.027-.03-3.77-.1-7.656-.128h-3.688c-.088-.004-3.18-.16-8.814.22-.06.003-.033-.005-.094 0l-8.437.28h-.062s-10.003.545-20.688 2.844c0 0-2.715-.047-3.625-.532l-.03-.032s-9.61-4.957-23.657-9.562l-.063-.03-.094-.032-7.156-1.81h-.03s-4.443-1.11-7.907-1.47h-.032v-.03s-9.543-1.28-16 4.092l-.154.125-.158.156s-6.644 7.765-9.845 18.096c-.003.01.003.02 0 .03-.014.044-2.206 6.667-2.813 16.032v.092s-.218 5.92 1.22 13c0 0 .79 3.96 3.062 12.187v.032l.03.06s-.015.103-.093.28c-.016.044.003.005-.03.065-.102.174-12.084 20.9-12.937 42.28 0 0-.05.36-.062.5-.01.14-.023.3-.03.562-.015.527-.017 1.41 0 3.03 0 0-.03.218-.094.5l-5.22.5h-.03l-8.093.907s-4.79.44-8.405 2.124c-.04.02-.085.01-.125.03l.03.063c-.192.103-3.69 1.948-3.78 6.06v.22l.03.19s.286 2.63 2.782 3.656l.28.125.28.03s2.76.46 6.5 0h.032l5.625-.624h.064l7.78-.688v.03l2.75-.094s.14.107.25.157c.107.377.627 2.05 1.658 6.97 0 0 1 4.94 1.94 7.907-.056.03-.037.06-.127.093l-6.312 1.844h-.06s-3.445 1.08-6.314 2.75c-.165.097-.34.12-.5.22v.03c-.572.256-1.706.85-2.53 2.407v.03h-.03s-.95 1.19-.595 3.315v.03s.254.87.69 1.47c.43.6 1.11 1.23 2.06 1.72 0 0 2.04 1.16 4.656.75h.03s2.906-.5 5.5-1.313c.12-.037.135-.024.25-.063l5.534-1.157s2.08-.012 3.03.814l2.376 4.125v.06l.03.033 2.813 4.53.03-.03c.102.204.5.967 1.56 2.312l-.093.03-.095.064s-3.52 2.24-10.938 6.437h-.03v.03c0 .002-1.93 1.128-3.94 2.814 0 0-.733.61-1.563 1.44-.83.826-1.78 1.812-2.47 3.186l-.28.53v2.69l.03.155s-.165 1.953 1.877 3.44l.22.155.28.124s1.63.766 3.72.5h.03s1.545-.2 3.063-1.25v.03l.19-.126 8.936-5.5s5.484-3.377 8.94-4.78l.217-.065.188-.125s.288-.13.53-.155c.047.015.35.13.378.156l.095.095.062.064s6.738 5.275 10.78 8.06c0 0 10.032 6.98 18.69 10.53 0 0 10.176 4.15 18.624 6.22h.03s7.705 1.866 19.095 3.157h.03l16.5 1.596s19.558 1.805 39.032.313c0 0 9.387-.69 15.407-1.845l.187-.03c.29-.034 9.065-1.048 18.877-3.814 0 0 7.14-2.004 13.5-4.562 0 0 6.2-2.473 11.875-6.187v.03s3.946-2.58 10.846-8.06l.063-.032.063-.062s4.658-4.09 8.688-8.593c0 0 .18-.09.28-.155l1-.03c.117.027.86.204 2.534.967.018.007.013-.008.03 0 .03.014 1.77.903 3.19 1.406.107.038.145.06.25.093l6.75 3h.03c.043.02 4.194 2.033 7.875 2.593h.25s2.094.218 3.72-1.5l.03.03.03-.06c.07-.06.874-1.004 1.157-2.53l.093.03s-.007-.25 0-.28c.013-.127.09-.178.092-.313h-.094c.097-.797.31-3.438-2.095-5.592l-.125-.093-.093-.093s-3.352-2.4-8.875-5.094l-8.69-4.25 2.033-4.594.03-.03 2.25-5.22.032-.03v-.064l1.094-2.814c.002-.005-.007-.026 0-.03.09-.098.23-.225.28-.313l6.062.342 6.28.875h.25l3.844.158h.062s.754-.002 1.687-.125c.932-.122 2.107-.29 3.343-1.062l.096-.094.125-.063s.564-.498.907-1.094c.34-.59.62-1.457.625-2.438v-.03c.002-.028.005-.55-.155-1.188-.16-.64-.514-1.702-1.72-2.406-.006-.004.008-.027 0-.03l-.06-.03c-.094-.057-4.745-2.785-10.876-3.877h-.03l-3.344-.563h-.03l-2.94-.437h-.03l-.03-.03-1.502-.19c.02-.362.078-1.727.594-5.342 0 0 .61-4.044.687-6.593v-.03l.03-2.377c1.047-.236 3.378-.67 7.938-.406h.062l10.126.406h.283l3.314-.22.093-.03h.093s1.023-.13 2.126-.688c1.1-.56 2.704-1.9 2.842-4v-.345l-.03-.28s-.607-2.67-3.095-4.126h-.03c-.043-.024-.053-.07-.095-.094-.09-.05-.18-.092-.25-.125-.11-.05-.25-.094-.47-.185-.438-.182-1.205-.517-2.624-1.062l-.28-.09-.313-.033-7.625-.844-.124-.03h-.094l-8.126-.22h-.22l-2.313.126h-.092s-.3.018-.656.032c-.277.01-.473 0-.562 0L375.72 278v-.063l-.033-.062s-1.198-5.226-3.625-10.97c.505-.717 1.794-2.512 4.407-7l.06-.124.06-.09.188-.406v-.03c.02-.043 5.07-10.402 5.22-21.188v-.03c0-.03.04-2.864-.376-5.782h.03s-.03-.06-.03-.063c-.012-.107-.557-4.685-3.97-8.562 0 0-3.165-3.734-8.06-5h-.033v-.03c-.18-2.732-1.09-15.392-5.56-25.532l-.065-.125-.062-.093s-2.4-4.568-4.594-7.094c0 0-3.216-4.052-8.186-5.156H351s-3.987-.738-9-.063h-.063l-.062.032-7.75 1.5-.125.032-.094.03s-4.677 1.326-8.656 2.94c0 0-3.518 1.414-8.25 3.78l-.094.03-.094.064-5.468 3.314c-1.75-2.475-6.528-8.836-14.563-12.063l-.31-.124s-2.61-.695-5.905-1l-.03-.25h-2.126zm59.28 15.75c.786.163 1.345.937 1.345.937l.067.125.062.125c2.18 3.268 3.437 6.5 3.437 6.5 1.05 2.7 1.852 6.762 1.875 6.875l.03.094.907 5.84v.093l.22 1.78c-8.895.2-16.453 2.568-16.627 2.626l-.124.032v.03c-.706.212-1.21.517-1.75.814l-.407-.5-.034-.063-.063-.063c-3.68-3.974-8.344-5.966-8.344-5.966-3.274-1.47-6.07-1.856-7.905-2.03-.226-.992-.476-2.462-.5-2.533h.03l-.03-.09-.03-.063-.033-.063-.5-1.562-.03-.03-.032-.063-1-2.563c6.8-3.674 10.375-5 10.375-5l.094-.03.06-.033c4.096-1.6 8.53-3.06 8.53-3.06 5.525-1.82 7.407-1.97 7.407-1.97l2.966-.187zm-178.78 5.28l.03.188h.094c1.813.05 7.67 1.19 7.814 1.22.032.01.06.026.094.03 14.033 3.588 27.812 11.63 27.812 11.63h.03c2.223 1.272 4.616 1.452 6.47 1.437 1.854-.015 3.28-.313 3.28-.313h.094l4.157-.936v-.03c2.316-.55 3.69-.626 3.69-.626h.03l14.75-1.062h.066c8.81-.35 15.01-.38 17.78-.406-3.547 11.018-4.03 18.344-4.03 18.344-.71 13.49 7.073 21.572 7.812 22.312l.125.188.22.25.218.187.126.064c.024.02.04.042.063.06 6.63 5.5 15.405 5.938 15.405 5.938 9.134.616 20.25-3.25 20.25-3.25h.033v-.032l.718-.25.126-.03.094-.063c.217-.1.177-.14.375-.25 3.64 4.376 7.937 6.826 7.97 6.843h.03c5.944 3.256 12.307 3.19 12.406 3.19h.064c1.75.01 3.425-.193 4.72-.408.25.61.385.893.466 1.032l.126.22c2.894 6.206 7.657 10.622 7.657 10.622h.03c6.132 5.662 13.374 6.72 13.374 6.72 7.638 1.134 14.1-2.225 17.686-4.594 1.958 6.528 2.77 13.738 2.845 14.437-.81.19-2.156.438-2.156.438h-.096l-3.5.53-.094.033h-.093l-3.312.75h-.03c-2.36.502-4.158 1.438-4.158 1.438l-.187.094-.19.126c-2.825 2.107-2.186 5.72-2.186 5.72l.063.187.062.19c1.485 3.802 5.75 3.97 5.75 3.97h.22l.214-.034 5.22-.686h.03l4.438-.626c.06 2.842-.156 4.343-.156 4.343v.186c-.44 3.767-.93 6.383-1.094 7.312l-1.625-.095h-.25l-3.907.156h-.344l-.28.095c-3.257.99-4.033 4.28-4.033 4.28l-.062.25-.03.285c-.074 2.028 1.175 3.37 2.06 4.094.89.726 1.785 1.094 1.785 1.094l.156.062.125.03 3.344.97c-1.46 4.547-5.033 10.78-5.033 10.78l-.062.126-.063.157c-.163.376-.08.185-.28.22-.2.03-.374 0-.374 0h-.063l-3.968-.91h-.063c-2.95-.547-5.058.7-5.436.938l-.03-.03c-.054.027-.077.063-.127.092l-.124.062.032.03c-1.82 1.152-1.938 2.875-1.938 2.875v.033h-.03c-.298 1.538.15 2.746.186 2.843l.03.064c.887 2.558 2.964 3.575 3 3.592h.032c.58.362.85.482 1.437.78-2.504 2.865-5.847 5.602-5.875 5.625h-.032c-2.89 2.156-7.77 5.142-7.844 5.186l-.062.03c-13.908 7.867-29.72 10.5-29.72 10.5h-.092l-.125.03c-9.775 2.485-27.72 3.534-27.72 3.534-21.872 1.228-42.562-1.094-42.562-1.094h-.03l-.063-.03c-9.76-.766-18.906-2.94-18.906-2.94-3.295-.785-13.968-3.936-13.968-3.936-7.213-2.158-15.437-6.844-15.437-6.844-5.1-2.918-9.96-6.433-12.345-8.188.513-.274 1.064-.564 1.064-.564l.03-.03c2.99-1.476 4.376-3.72 4.376-3.72l.28-.437.064-.5c.29-2.235-.78-3.905-.78-3.905h-.03c-1.4-2.353-4.094-2.5-4.094-2.5-2.886-.13-5.437.844-5.437.844l-.065.03-.062.032-3.875 1.593c-.924.13-1.496-.005-1.845-.187-.31-.163-.33-.17-.344-.188l-.03-.03c0-.002-.03-.032-.03-.032l-3.47-4.75c-.014-.02-.02-.01-.03-.03l-.03-.064c-1.475-2.23-2.11-3.654-2.347-4.154 2.716-.81 6.125-2 6.125-2l.343-.094.28-.217c.634-.453 1.085-.877 1.408-1.314.162-.218.28-.45.375-.656.086-.183.168-.43.188-.5l.03-.063h-.03c.445-1.82-.124-3.342-.124-3.342v-.03h-.032c-.88-2.35-3.188-2.876-3.188-2.876l-.22-.06-.25-.034-3.843-.25-.187-.03-.22.03-4.343.47-.28.03-.313.095c-.178.067-.03.007-.094.033-2.515-5.89-3.126-11.215-3.156-11.532v-.967l2.125.063h.155l2.844.22h.436c.64-.07 3.97 0 3.97 0h.336c1.945-.175 3.432-1.212 4.218-2.19.785-.973 1.062-2.06 1.062-2.06l.063-.22v-.25c.19-3.683-3.406-5.22-3.406-5.22l-.156-.06-.157-.032c-2.373-.655-3.093-1-3.093-1l-.314-.156-.343-.062-4.625-.72h-.095l-4.25-.468c.423-18.208 7.78-34.28 7.78-34.28l.032-.095.032-.092c1.388-3.675 4.498-8.62 4.56-8.72.002 0 .032-.06.032-.06l5.937-8.72.094-.156.095-.186c1.248-2.676.687-5.188.687-5.188l-.03-.063v-.063c-.957-3.15-4.137-3.774-4.345-3.81-.012-.004-.02 0-.03 0l-.095-.033v.03c-2.03-.326-3.53.47-3.53.47l-.125.03-.095.097-.25.156c-.524-1.453-1.156-3.25-1.156-3.25-.477-2.017-.828-5.193-.845-5.345.212-8.136 1.842-14.156 1.842-14.156 1.868-6.824 5.92-11.77 6.03-11.906 1.316-1.282 4.896-1.768 5.656-1.782v-.186z"/><path d="M345.48 251.118s-1.08 1.177-2.256 1.44l-2.322.097s-1.11-.23-2.027-.98c0 0-.327-.263-.327-.85 0 0-.033-.623.294-1.08 0 0 1.537-2.845 2.355-6.246 0 0 .032-.49.523-.92 0 0 .49-.424.915-.326 0 0 1.603.196 3.04 1.667 0 0 1.963 2.257 1.18 4.873 0 0-.328 1.21-1.375 2.322m21.778-23.74s1.994.458 3.564 2.257c0 0 1.602 1.766 1.83 3.793 0 0 .72 5.395-.49 11.38 0 0-1.08 5.33-3.564 10.594 0 0-4.74 8.436-9.384 12.85 0 0-6.9 6.54-14.388 5.46 0 0-4.61-.686-8.698-4.544 0 0-3.727-3.466-5.787-8.208 0 0-.39-.427-.26-1.146 0 0 .1-.687.558-1.08l1.733-1.307s1.177-.655 2.19.228c0 0 2.584 1.798 5.756 2.223 0 0 3.335.425 6.115-.817 0 0 3.204-1.275 5.36-4.25 0 0 2.16-2.977 2.39-6.443 0 0 .163-3.367-1.178-6.244 0 0-1.37-2.943-4.084-4.905 0 0-2.616-1.73-5.755-2.124 0 0-.72-.13-1.177-.524 0 0-.458-.425-.524-1.013l-.884-3.6s-.098-1.373 1.014-1.732c0 0 6.113-2.06 12.685-2.324 0 0 6.867-.293 12.982 1.473M330.012 226s3.53 3.664 4.414 8.96c0 0 .85 5.233-1.177 9.876 0 0-1.863 4.74-6.473 7.717 0 0-4.546 2.975-9.647 2.845 0 0-4.708.065-8.894-2.486 0 0-4.12-2.55-6.474-6.834 0 0-2.42-4.25-1.864-9.81 0 0 .556-5.558 3.76-9.253 0 0 2.42-3.37 7.227-5.494 0 0 5.003-1.862 10.3-.59 0 0 5.297 1.246 8.83 5.07m-42.02.655s.23 1.732 1.31 3.236c0 0 1.078 1.57 2.647 2.356l.85.033s.458-.23.654-.785c0 0 1.57-5.56 5.07-9.582 0 0 .457-.59.424-1.275 0 0-.033-.623-.393-.884 0 0-1.504-.85-3.27-.948 0 0-1.798-.13-3.27.62 0 0-2.06.982-3.138 2.944 0 0-1.116 1.993-.887 4.282m-3.01-38.324s4.383-1.21 8.405.263c0 0 6.213 2.52 10.987 9.158 0 0 3.728 5.23 6.376 12.75 0 0 .165.688.557 1.57l.097 1.145s-.13.59-.654.752c0 0-2.747.948-4.25 1.668l-1.047.26s-.59-.064-.818-.522l-1.57-1.307s-3.238-2.354-7.456-2.518c0 0-4.187-.196-7.718 1.864 0 0-3.957 2.387-5.788 6.41 0 0-1.767 3.89-1.178 8.436 0 0 .555 3.27 2.713 6.147 0 0 2.157 2.91 5.133 4.315 0 0 1.21.59 2.388.85 0 0 1.505.326 1.668 1.34l.72 3.76s.327 1.145-1.178 1.8c0 0-18.31 6.146-27.01-1.113 0 0-5.786-5.526-5.23-15.663 0 0 .36-6.44 3.792-16.806 0 0 2.19-5.82 5.557-10.954 0 0 3.563-5.396 8.043-9.45 0 0 3.4-3.042 7.456-4.154" fill="red"/><path d="M257.684 328.94s3.368.263 5.166 2.388c0 0 .654.49.916 1.374l.327 1.634s-.033.98-.752 1.832c0 0-.65.784-1.6 1.21 0 0-2.52 1.275-5.72 1.11 0 0-3.303-.13-5.527-1.765 0 0-1.93-1.83-1.24-3.596 0 0 .23-.95.98-1.897 0 0 .72-.916 1.602-1.406 0 0 2.944-1.144 5.854-.883" fill="orange"/></svg>